<?xml version="1.0" standalone="no"?>
<!DOCTYPE svg PUBLIC "-//W3C//DTD SVG 20010904//EN"
 "http://www.w3.org/TR/2001/REC-SVG-20010904/DTD/svg10.dtd">
<svg version="1.0" xmlns="http://www.w3.org/2000/svg"
 width="330.000000pt" height="330.000000pt" viewBox="0 0 330.000000 330.000000"
 preserveAspectRatio="xMidYMid meet">
<metadata>
Created by potrace 1.11, written by Peter Selinger 2001-2013
</metadata>
<g transform="translate(0.000000,330.000000) scale(0.100000,-0.100000)"
fill="#000000" stroke="none">
<path d="M571 3014 c-201 -43 -353 -196 -394 -397 -10 -48 -12 -275 -11 -982
0 -506 4 -935 8 -953 22 -109 73 -198 158 -279 95 -89 213 -135 347 -135 102
0 158 19 466 162 39 18 144 66 235 107 91 41 193 88 228 104 35 16 67 29 71
29 4 0 41 -16 82 -36 41 -20 142 -69 224 -109 561 -271 524 -257 653 -256 224
1 411 140 484 361 21 64 21 74 23 975 0 501 -3 933 -8 960 -51 300 -342 488
-634 411 -52 -14 -175 -74 -193 -95 -3 -3 -70 -50 -150 -104 -80 -54 -217
-148 -305 -208 -87 -60 -163 -109 -167 -109 -4 0 -168 107 -365 238 -197 131
-378 250 -403 264 -98 57 -233 77 -349 52z"/>
</g>
</svg>
